<svg width="12" height="22" viewBox="0 0 12 22" fill="none" xmlns="http://www.w3.org/2000/svg">
<path d="M2.99593 5.36059C2.78293 7.00259 4.09993 8.52659 4.09993 8.52659C4.09993 8.52659 5.76293 7.38859 5.97593 5.74659C6.18893 4.10359 4.87193 2.57959 4.87193 2.57959C4.87193 2.57959 3.20993 3.71959 2.99593 5.36059ZM1.43293 10.8796C2.12893 12.3826 4.05693 12.9726 4.05693 12.9726C4.05693 12.9726 4.85693 11.1256 4.16093 9.62259C3.46493 8.11959 1.53693 7.52859 1.53693 7.52859C1.53693 7.52859 0.736933 9.37659 1.43293 10.8796Z" stroke="black" stroke-width="1.5" stroke-linejoin="round"/>
<path d="M5.56 16.764C5.56 16.764 3.582 17.158 2.254 16.165C0.926 15.172 0.75 13.167 0.75 13.167C0.75 13.167 2.728 12.773 4.056 13.766C5.384 14.759 5.56 16.764 5.56 16.764ZM5.56 16.764H8.758C9.28658 16.764 9.7935 16.9739 10.1673 17.3477C10.541 17.7215 10.751 18.2284 10.751 18.757C10.751 19.2855 10.541 19.7925 10.1673 20.1662C9.7935 20.54 9.28658 20.75 8.758 20.75H6.75" stroke="black" stroke-width="1.5" stroke-linecap="round" stroke-linejoin="round"/>
<path d="M7.53093 1.71775C6.32093 2.85075 6.36693 4.86175 6.36693 4.86175C6.36693 4.86175 8.37693 5.03775 9.58693 3.90475C10.7969 2.77175 10.7509 0.759747 10.7509 0.759747C10.7509 0.759747 8.74093 0.584747 7.53093 1.71775Z" stroke="black" stroke-width="1.5" stroke-linejoin="round"/>
</svg>
