<svg width="12" height="22" viewBox="0 0 12 22" fill="none" xmlns="http://www.w3.org/2000/svg">
<path d="M8.50625 5.36059C8.71925 7.00259 7.40225 8.52659 7.40225 8.52659C7.40225 8.52659 5.73924 7.38859 5.52524 5.74659C5.31224 4.10259 6.63025 2.57959 6.63025 2.57959C6.63025 2.57959 8.29225 3.71859 8.50625 5.36059ZM10.0672 10.8796C9.37124 12.3826 7.44324 12.9726 7.44324 12.9726C7.44324 12.9726 6.64324 11.1256 7.33924 9.62259C8.03524 8.11959 9.96425 7.52859 9.96425 7.52859C9.96425 7.52859 10.7642 9.37659 10.0672 10.8796Z" stroke="black" stroke-width="1.5" stroke-linejoin="round"/>
<path d="M5.94124 16.764C5.94124 16.764 7.91924 17.158 9.24724 16.165C10.5752 15.172 10.7512 13.167 10.7512 13.167C10.7512 13.167 8.77324 12.773 7.44524 13.766C6.11724 14.759 5.94124 16.764 5.94124 16.764ZM5.94124 16.764H2.74324C2.48152 16.764 2.22236 16.8155 1.98056 16.9157C1.73875 17.0158 1.51905 17.1626 1.33398 17.3477C1.14891 17.5328 1.00211 17.7525 0.901952 17.9943C0.801794 18.2361 0.750244 18.4952 0.750244 18.757C0.750244 19.0187 0.801794 19.2779 0.901952 19.5197C1.00211 19.7615 1.14891 19.9812 1.33398 20.1662C1.51905 20.3513 1.73875 20.4981 1.98056 20.5983C2.22236 20.6984 2.48152 20.75 2.74324 20.75H4.75024" stroke="black" stroke-width="1.5" stroke-linecap="round" stroke-linejoin="round"/>
<path d="M3.97023 1.71775C5.18023 2.85075 5.13423 4.86175 5.13423 4.86175C5.13423 4.86175 3.12423 5.03775 1.91423 3.90475C0.704229 2.77175 0.75023 0.759747 0.75023 0.759747C0.75023 0.759747 2.76023 0.584747 3.97023 1.71775Z" stroke="black" stroke-width="1.5" stroke-linejoin="round"/>
</svg>
