<svg width="36" height="36" viewBox="0 0 36 36" fill="none" xmlns="http://www.w3.org/2000/svg">
<g filter="url(#filter0_d_478_1261)">
<path d="M18 6C13.5817 6 10 9.58175 10 14C10 18.4185 13.5817 22 18 22C22.4185 22 26 18.4185 26 14C26 9.58175 22.4185 6 18 6ZM18 21.0157C14.1403 21.0157 11 17.8597 11 14C11 10.1402 14.1403 6.99997 18 6.99997C21.8597 6.99997 25 10.1402 25 14C25 17.8597 21.8597 21.0157 18 21.0157ZM21.1927 11.0728L16.499 15.796L14.3852 13.6823C14.19 13.487 13.8735 13.487 13.678 13.6823C13.4827 13.8775 13.4827 14.194 13.678 14.3892L16.1527 16.8643C16.348 17.0592 16.6645 17.0592 16.86 16.8643C16.8825 16.8418 16.9018 16.8172 16.9193 16.7917L21.9003 11.78C22.0953 11.5847 22.0953 11.2682 21.9003 11.0728C21.7048 10.8775 21.3883 10.8775 21.1927 11.0728Z" fill="white"/>
</g>
<defs>
<filter id="filter0_d_478_1261" x="0" y="0" width="36" height="36" filterUnits="userSpaceOnUse" color-interpolation-filters="sRGB">
<feFlood flood-opacity="0" result="BackgroundImageFix"/>
<feColorMatrix in="SourceAlpha" type="matrix" values="0 0 0 0 0 0 0 0 0 0 0 0 0 0 0 0 0 0 127 0" result="hardAlpha"/>
<feOffset dy="4"/>
<feGaussianBlur stdDeviation="5"/>
<feComposite in2="hardAlpha" operator="out"/>
<feColorMatrix type="matrix" values="0 0 0 0 1 0 0 0 0 1 0 0 0 0 1 0 0 0 1 0"/>
<feBlend mode="normal" in2="BackgroundImageFix" result="effect1_dropShadow_478_1261"/>
<feBlend mode="normal" in="SourceGraphic" in2="effect1_dropShadow_478_1261" result="shape"/>
</filter>
</defs>
</svg>
