<svg width="60" height="60" viewBox="0 0 60 60" fill="none" xmlns="http://www.w3.org/2000/svg">
<g filter="url(#filter0_d_478_1279)">
<path d="M36.5124 22.5924V19.5024C36.5124 18.9524 36.0624 18.5024 35.5124 18.5024H32.4224L30.2124 16.2924C30.1199 16.1997 30.01 16.1262 29.8891 16.076C29.7681 16.0258 29.6384 16 29.5074 16C29.3765 16 29.2468 16.0258 29.1258 16.076C29.0048 16.1262 28.895 16.1997 28.8024 16.2924L26.5924 18.5024H23.5024C22.9524 18.5024 22.5024 18.9524 22.5024 19.5024V22.5924L20.2924 24.8024C20.1997 24.895 20.1262 25.0048 20.076 25.1258C20.0258 25.2468 20 25.3765 20 25.5074C20 25.6384 20.0258 25.7681 20.076 25.8891C20.1262 26.01 20.1997 26.1199 20.2924 26.2124L22.5024 28.4224V31.5124C22.5024 32.0624 22.9524 32.5124 23.5024 32.5124H26.5924L28.8024 34.7224C29.0024 34.9224 29.2524 35.0124 29.5124 35.0124C29.7724 35.0124 30.0224 34.9124 30.2224 34.7224L32.4324 32.5124H35.5224C36.0724 32.5124 36.5224 32.0624 36.5224 31.5124V28.4224L38.7324 26.2124C38.8251 26.1199 38.8987 26.01 38.9489 25.8891C38.9991 25.7681 39.0249 25.6384 39.0249 25.5074C39.0249 25.3765 38.9991 25.2468 38.9489 25.1258C38.8987 25.0048 38.8251 24.895 38.7324 24.8024L36.5224 22.5924H36.5124ZM28.0984 29.9224L24.8024 26.38L26.5173 24.5368L28.0862 26.2231L32.0876 21.9224L33.8024 23.7656L28.0741 29.9224H28.0984Z" fill="#FFCC00"/>
</g>
<defs>
<filter id="filter0_d_478_1279" x="0" y="0" width="59.0249" height="59.0125" filterUnits="userSpaceOnUse" color-interpolation-filters="sRGB">
<feFlood flood-opacity="0" result="BackgroundImageFix"/>
<feColorMatrix in="SourceAlpha" type="matrix" values="0 0 0 0 0 0 0 0 0 0 0 0 0 0 0 0 0 0 127 0" result="hardAlpha"/>
<feOffset dy="4"/>
<feGaussianBlur stdDeviation="10"/>
<feComposite in2="hardAlpha" operator="out"/>
<feColorMatrix type="matrix" values="0 0 0 0 1 0 0 0 0 1 0 0 0 0 0 0 0 0 1 0"/>
<feBlend mode="normal" in2="BackgroundImageFix" result="effect1_dropShadow_478_1279"/>
<feBlend mode="normal" in="SourceGraphic" in2="effect1_dropShadow_478_1279" result="shape"/>
</filter>
</defs>
</svg>
